<?xml version="1.0" standalone="no"?>
<!DOCTYPE svg PUBLIC "-//W3C//DTD SVG 20010904//EN"
 "http://www.w3.org/TR/2001/REC-SVG-20010904/DTD/svg10.dtd">
<svg version="1.0" xmlns="http://www.w3.org/2000/svg"
 width="260.000000pt" height="260.000000pt" viewBox="0 0 260.000000 260.000000"
 preserveAspectRatio="xMidYMid meet">
<metadata>
Created by potrace 1.11, written by Peter Selinger 2001-2013
</metadata>
<g transform="translate(0.000000,260.000000) scale(0.100000,-0.100000)"
fill="#000000" stroke="none">
<path d="M750 1525 c0 -13 5 -27 10 -30 6 -4 10 -70 10 -165 0 -147 -2 -160
-19 -170 -15 -8 -18 -16 -12 -37 9 -34 42 -41 77 -18 45 29 54 70 54 235 0
128 2 150 15 150 19 0 25 -15 65 -166 17 -66 35 -127 40 -134 8 -14 65 -19 76
-7 4 4 17 41 29 83 12 42 24 73 27 68 3 -5 13 -41 22 -81 18 -74 32 -87 76
-76 20 5 26 19 88 197 51 150 62 149 62 -3 0 -100 -3 -123 -15 -127 -19 -8
-11 -43 13 -61 19 -16 76 -17 103 -3 20 11 26 45 9 55 -13 8 -13 85 0 85 6 0
13 -7 16 -15 4 -8 19 -15 35 -15 24 0 29 5 35 35 3 19 3 51 0 70 -6 29 -4 35
11 35 16 0 18 -10 18 -72 1 -96 27 -148 85 -172 47 -18 80 -20 131 -6 41 11
55 41 44 91 -9 39 -55 41 -79 3 -21 -32 -55 -29 -73 6 -16 32 -16 128 0 160
18 36 63 40 79 6 16 -37 63 -37 72 0 12 46 -2 81 -36 93 -71 25 -159 7 -191
-40 -15 -20 -15 -20 -22 9 -8 40 -20 42 -220 41 -151 0 -166 -2 -161 -17 15
-51 15 -71 2 -107 -15 -43 -18 -41 -36 40 -15 68 -21 76 -67 82 l-40 5 -25
-88 -25 -89 -11 53 c-9 41 -9 57 1 73 23 37 -10 48 -149 48 -124 0 -124 0
-124 -24z m778 -72 c2 -7 -3 -13 -11 -13 -8 0 -22 -10 -30 -22 -16 -23 -16
-22 -16 15 -1 36 1 38 26 35 14 -2 28 -9 31 -15z"/>
</g>
</svg>
